<svg id="visual" viewBox="0 0 960 540" width="960" height="540" xmlns="http://www.w3.org/2000/svg" xmlns:xlink="http://www.w3.org/1999/xlink" version="1.1"><path d="M0 77L87 87L175 206L262 109L349 120L436 104L524 93L611 141L698 179L785 168L873 217L960 185L960 0L873 0L785 0L698 0L611 0L524 0L436 0L349 0L262 0L175 0L87 0L0 0Z" fill="#81689d"></path><path d="M0 206L87 217L175 266L262 244L349 222L436 201L524 185L611 190L698 303L785 314L873 276L960 303L960 183L873 215L785 166L698 177L611 139L524 91L436 102L349 118L262 107L175 204L87 85L0 75Z" fill="#7b58a1"></path><path d="M0 260L87 330L175 352L262 314L349 271L436 255L524 255L611 239L698 374L785 406L873 314L960 406L960 301L873 274L785 312L698 301L611 188L524 183L436 199L349 220L262 242L175 264L87 215L0 204Z" fill="#7448a4"></path><path d="M0 341L87 390L175 395L262 352L349 336L436 330L524 325L611 325L698 455L785 449L873 352L960 444L960 404L873 312L785 404L698 372L611 237L524 253L436 253L349 269L262 312L175 350L87 328L0 258Z" fill="#6c36a7"></path><path d="M0 541L87 541L175 541L262 541L349 541L436 541L524 541L611 541L698 541L785 541L873 541L960 541L960 442L873 350L785 447L698 453L611 323L524 323L436 328L349 334L262 350L175 393L87 388L0 339Z" fill="#6420aa"></path></svg>