<svg id="visual" viewBox="0 0 960 540" width="960" height="540" xmlns="http://www.w3.org/2000/svg" xmlns:xlink="http://www.w3.org/1999/xlink" version="1.1"><g stroke-width="1" stroke-linejoin="bevel"><path d="M439.7 300L353 304L387.7 390Z" fill="#9dbcd2" stroke="#9dbcd2"></path><path d="M353 304L339 355L387.7 390Z" fill="#5f96b8" stroke="#5f96b8"></path><path d="M387.7 390L527.3 373L439.7 300Z" fill="#c4d6e4" stroke="#c4d6e4"></path><path d="M245.3 351L296 417L339 355Z" fill="#478aaf" stroke="#478aaf"></path><path d="M339 355L296 417L387.7 390Z" fill="#9dbcd2" stroke="#9dbcd2"></path><path d="M387.7 390L397.7 540L463.7 442Z" fill="#c4d6e4" stroke="#c4d6e4"></path><path d="M463.7 442L527.3 373L387.7 390Z" fill="#89afc9" stroke="#89afc9"></path><path d="M439.7 300L326 213L353 304Z" fill="#5f96b8" stroke="#5f96b8"></path><path d="M353 304L245.3 351L339 355Z" fill="#ffffff" stroke="#ffffff"></path><path d="M527.3 373L534.3 275L439.7 300Z" fill="#75a3c0" stroke="#75a3c0"></path><path d="M439.7 300L462.7 145L326 213Z" fill="#ebf1f6" stroke="#ebf1f6"></path><path d="M251.3 235L245.3 351L353 304Z" fill="#9dbcd2" stroke="#9dbcd2"></path><path d="M326 213L251.3 235L353 304Z" fill="#5f96b8" stroke="#5f96b8"></path><path d="M534.3 275L462.7 145L439.7 300Z" fill="#75a3c0" stroke="#75a3c0"></path><path d="M326 213L215.3 103L251.3 235Z" fill="#5f96b8" stroke="#5f96b8"></path><path d="M561.3 476L601 352L527.3 373Z" fill="#89afc9" stroke="#89afc9"></path><path d="M527.3 373L601 352L534.3 275Z" fill="#478aaf" stroke="#478aaf"></path><path d="M534.3 275L569.3 175L462.7 145Z" fill="#b1c9db" stroke="#b1c9db"></path><path d="M339 540L397.7 540L387.7 390Z" fill="#d8e4ed" stroke="#d8e4ed"></path><path d="M463.7 442L561.3 476L527.3 373Z" fill="#75a3c0" stroke="#75a3c0"></path><path d="M245.3 351L224.3 445L296 417Z" fill="#89afc9" stroke="#89afc9"></path><path d="M296 417L339 540L387.7 390Z" fill="#75a3c0" stroke="#75a3c0"></path><path d="M125.7 445L224.3 445L245.3 351Z" fill="#d8e4ed" stroke="#d8e4ed"></path><path d="M249.3 540L339 540L296 417Z" fill="#89afc9" stroke="#89afc9"></path><path d="M462.7 145L353 128L326 213Z" fill="#75a3c0" stroke="#75a3c0"></path><path d="M532.3 540L561.3 476L463.7 442Z" fill="#297ea6" stroke="#297ea6"></path><path d="M666 309L569.3 175L534.3 275Z" fill="#c4d6e4" stroke="#c4d6e4"></path><path d="M215.3 103L191.3 206L251.3 235Z" fill="#9dbcd2" stroke="#9dbcd2"></path><path d="M251.3 235L112.7 280L245.3 351Z" fill="#b1c9db" stroke="#b1c9db"></path><path d="M397.7 540L532.3 540L463.7 442Z" fill="#c4d6e4" stroke="#c4d6e4"></path><path d="M224.3 445L249.3 540L296 417Z" fill="#d8e4ed" stroke="#d8e4ed"></path><path d="M706.7 377L666 309L601 352Z" fill="#c4d6e4" stroke="#c4d6e4"></path><path d="M601 352L666 309L534.3 275Z" fill="#297ea6" stroke="#297ea6"></path><path d="M643 459L601 352L561.3 476Z" fill="#b1c9db" stroke="#b1c9db"></path><path d="M647 540L643 459L561.3 476Z" fill="#89afc9" stroke="#89afc9"></path><path d="M559.3 92L435.7 57L462.7 145Z" fill="#c4d6e4" stroke="#c4d6e4"></path><path d="M462.7 145L435.7 57L353 128Z" fill="#478aaf" stroke="#478aaf"></path><path d="M353 128L215.3 103L326 213Z" fill="#478aaf" stroke="#478aaf"></path><path d="M626 158L600 129L569.3 175Z" fill="#b1c9db" stroke="#b1c9db"></path><path d="M569.3 175L559.3 92L462.7 145Z" fill="#297ea6" stroke="#297ea6"></path><path d="M666 309L626 158L569.3 175Z" fill="#75a3c0" stroke="#75a3c0"></path><path d="M191.3 206L112.7 280L251.3 235Z" fill="#ffffff" stroke="#ffffff"></path><path d="M224.3 445L122.7 540L249.3 540Z" fill="#9dbcd2" stroke="#9dbcd2"></path><path d="M600 129L559.3 92L569.3 175Z" fill="#c4d6e4" stroke="#c4d6e4"></path><path d="M85.7 324L125.7 445L245.3 351Z" fill="#75a3c0" stroke="#75a3c0"></path><path d="M300 0L215.3 103L353 128Z" fill="#9dbcd2" stroke="#9dbcd2"></path><path d="M191.3 206L99.7 185L112.7 280Z" fill="#9dbcd2" stroke="#9dbcd2"></path><path d="M643 459L706.7 377L601 352Z" fill="#ebf1f6" stroke="#ebf1f6"></path><path d="M666 309L736.7 259L626 158Z" fill="#89afc9" stroke="#89afc9"></path><path d="M0 264L85.7 324L112.7 280Z" fill="#c4d6e4" stroke="#c4d6e4"></path><path d="M112.7 280L85.7 324L245.3 351Z" fill="#297ea6" stroke="#297ea6"></path><path d="M532.3 540L647 540L561.3 476Z" fill="#9dbcd2" stroke="#9dbcd2"></path><path d="M643 459L768.7 432L706.7 377Z" fill="#5f96b8" stroke="#5f96b8"></path><path d="M122.7 111L99.7 185L191.3 206Z" fill="#9dbcd2" stroke="#9dbcd2"></path><path d="M564.3 0L411.7 0L435.7 57Z" fill="#ffffff" stroke="#ffffff"></path><path d="M435.7 57L411.7 0L353 128Z" fill="#ffffff" stroke="#ffffff"></path><path d="M0 459L122.7 540L125.7 445Z" fill="#89afc9" stroke="#89afc9"></path><path d="M125.7 445L122.7 540L224.3 445Z" fill="#b1c9db" stroke="#b1c9db"></path><path d="M706.7 377L736.7 259L666 309Z" fill="#9dbcd2" stroke="#9dbcd2"></path><path d="M626 158L731.7 107L600 129Z" fill="#89afc9" stroke="#89afc9"></path><path d="M411.7 0L300 0L353 128Z" fill="#297ea6" stroke="#297ea6"></path><path d="M215.3 103L122.7 111L191.3 206Z" fill="#297ea6" stroke="#297ea6"></path><path d="M187.3 0L122.7 111L215.3 103Z" fill="#75a3c0" stroke="#75a3c0"></path><path d="M650 0L564.3 0L559.3 92Z" fill="#c4d6e4" stroke="#c4d6e4"></path><path d="M559.3 92L564.3 0L435.7 57Z" fill="#478aaf" stroke="#478aaf"></path><path d="M736.7 259L727.7 179L626 158Z" fill="#ebf1f6" stroke="#ebf1f6"></path><path d="M650 0L559.3 92L600 129Z" fill="#b1c9db" stroke="#b1c9db"></path><path d="M647 540L714.7 540L643 459Z" fill="#5f96b8" stroke="#5f96b8"></path><path d="M865.3 340L850.3 280L736.7 259Z" fill="#478aaf" stroke="#478aaf"></path><path d="M714.7 540L768.7 432L643 459Z" fill="#b1c9db" stroke="#b1c9db"></path><path d="M871.3 140L731.7 107L727.7 179Z" fill="#297ea6" stroke="#297ea6"></path><path d="M300 0L187.3 0L215.3 103Z" fill="#9dbcd2" stroke="#9dbcd2"></path><path d="M85.7 324L0 389L125.7 445Z" fill="#ffffff" stroke="#ffffff"></path><path d="M0 264L0 389L85.7 324Z" fill="#89afc9" stroke="#89afc9"></path><path d="M0 264L112.7 280L99.7 185Z" fill="#89afc9" stroke="#89afc9"></path><path d="M0 204L99.7 185L0 127Z" fill="#478aaf" stroke="#478aaf"></path><path d="M0 204L0 264L99.7 185Z" fill="#b1c9db" stroke="#b1c9db"></path><path d="M850.3 280L727.7 179L736.7 259Z" fill="#297ea6" stroke="#297ea6"></path><path d="M727.7 179L731.7 107L626 158Z" fill="#d8e4ed" stroke="#d8e4ed"></path><path d="M0 389L0 459L125.7 445Z" fill="#ffffff" stroke="#ffffff"></path><path d="M0 127L99.7 185L122.7 111Z" fill="#9dbcd2" stroke="#9dbcd2"></path><path d="M731.7 107L650 0L600 129Z" fill="#9dbcd2" stroke="#9dbcd2"></path><path d="M0 459L0 540L122.7 540Z" fill="#c4d6e4" stroke="#c4d6e4"></path><path d="M73.7 0L0 127L122.7 111Z" fill="#478aaf" stroke="#478aaf"></path><path d="M865.3 340L706.7 377L768.7 432Z" fill="#9dbcd2" stroke="#9dbcd2"></path><path d="M865.3 340L736.7 259L706.7 377Z" fill="#ffffff" stroke="#ffffff"></path><path d="M187.3 0L73.7 0L122.7 111Z" fill="#478aaf" stroke="#478aaf"></path><path d="M887.3 483L865.3 340L768.7 432Z" fill="#d8e4ed" stroke="#d8e4ed"></path><path d="M714.7 540L830.3 540L768.7 432Z" fill="#89afc9" stroke="#89afc9"></path><path d="M860.3 72L779.7 0L731.7 107Z" fill="#ffffff" stroke="#ffffff"></path><path d="M731.7 107L779.7 0L650 0Z" fill="#5f96b8" stroke="#5f96b8"></path><path d="M830.3 540L887.3 483L768.7 432Z" fill="#b1c9db" stroke="#b1c9db"></path><path d="M850.3 280L871.3 140L727.7 179Z" fill="#478aaf" stroke="#478aaf"></path><path d="M960 245L871.3 140L850.3 280Z" fill="#297ea6" stroke="#297ea6"></path><path d="M960 245L850.3 280L865.3 340Z" fill="#d8e4ed" stroke="#d8e4ed"></path><path d="M73.7 0L0 0L0 127Z" fill="#5f96b8" stroke="#5f96b8"></path><path d="M871.3 140L860.3 72L731.7 107Z" fill="#d8e4ed" stroke="#d8e4ed"></path><path d="M860.3 72L839.3 0L779.7 0Z" fill="#5f96b8" stroke="#5f96b8"></path><path d="M960 433L960 378L865.3 340Z" fill="#ffffff" stroke="#ffffff"></path><path d="M871.3 140L960 58L860.3 72Z" fill="#d8e4ed" stroke="#d8e4ed"></path><path d="M860.3 72L960 0L839.3 0Z" fill="#ffffff" stroke="#ffffff"></path><path d="M960 378L960 245L865.3 340Z" fill="#89afc9" stroke="#89afc9"></path><path d="M887.3 483L960 433L865.3 340Z" fill="#5f96b8" stroke="#5f96b8"></path><path d="M960 540L960 433L887.3 483Z" fill="#75a3c0" stroke="#75a3c0"></path><path d="M960 245L960 163L871.3 140Z" fill="#b1c9db" stroke="#b1c9db"></path><path d="M830.3 540L960 540L887.3 483Z" fill="#ebf1f6" stroke="#ebf1f6"></path><path d="M960 163L960 58L871.3 140Z" fill="#c4d6e4" stroke="#c4d6e4"></path><path d="M960 58L960 0L860.3 72Z" fill="#c4d6e4" stroke="#c4d6e4"></path></g></svg>